<mxfile host="Electron" modified="2023-10-02T12:57:07.683Z" agent="Mozilla/5.0 (X11; Linux x86_64) AppleWebKit/537.36 (KHTML, like Gecko) draw.io/21.6.8 Chrome/114.0.5735.289 Electron/25.5.0 Safari/537.36" etag="zFoJafCaTfxrE6O0UCRG" version="21.6.8" type="device">
  <diagram name="Page-1" id="qNS6dQeRZ1B0CFlx_YuU">
    <mxGraphModel dx="1114" dy="1185" grid="1" gridSize="10" guides="1" tooltips="1" connect="1" arrows="1" fold="1" page="1" pageScale="1" pageWidth="850" pageHeight="1100" math="0" shadow="0">
      <root>
        <mxCell id="0" />
        <mxCell id="1" parent="0" />
        <mxCell id="prdgfaqCDxP16Kbh74Cv-1" style="edgeStyle=orthogonalEdgeStyle;rounded=0;orthogonalLoop=1;jettySize=auto;html=1;entryX=0.5;entryY=0;entryDx=0;entryDy=0;endArrow=block;endFill=0;" edge="1" parent="1" source="prdgfaqCDxP16Kbh74Cv-2" target="prdgfaqCDxP16Kbh74Cv-4">
          <mxGeometry relative="1" as="geometry" />
        </mxCell>
        <mxCell id="prdgfaqCDxP16Kbh74Cv-2" value="New vulnerability detected" style="rounded=1;whiteSpace=wrap;html=1;" vertex="1" parent="1">
          <mxGeometry x="320" y="40" width="160" height="40" as="geometry" />
        </mxCell>
        <mxCell id="prdgfaqCDxP16Kbh74Cv-3" style="edgeStyle=orthogonalEdgeStyle;rounded=0;orthogonalLoop=1;jettySize=auto;html=1;entryX=0.5;entryY=0;entryDx=0;entryDy=0;endArrow=block;endFill=0;" edge="1" parent="1" source="prdgfaqCDxP16Kbh74Cv-4" target="prdgfaqCDxP16Kbh74Cv-9">
          <mxGeometry relative="1" as="geometry" />
        </mxCell>
        <mxCell id="prdgfaqCDxP16Kbh74Cv-4" value="Restart services to enable trigger counting" style="rounded=1;whiteSpace=wrap;html=1;" vertex="1" parent="1">
          <mxGeometry x="320" y="120" width="160" height="40" as="geometry" />
        </mxCell>
        <mxCell id="prdgfaqCDxP16Kbh74Cv-5" style="edgeStyle=orthogonalEdgeStyle;rounded=0;orthogonalLoop=1;jettySize=auto;html=1;entryX=0.5;entryY=0;entryDx=0;entryDy=0;endArrow=block;endFill=0;" edge="1" parent="1" source="prdgfaqCDxP16Kbh74Cv-9" target="prdgfaqCDxP16Kbh74Cv-10">
          <mxGeometry relative="1" as="geometry" />
        </mxCell>
        <mxCell id="prdgfaqCDxP16Kbh74Cv-6" value="No" style="edgeLabel;html=1;align=center;verticalAlign=middle;resizable=0;points=[];" vertex="1" connectable="0" parent="prdgfaqCDxP16Kbh74Cv-5">
          <mxGeometry x="-0.8714" y="-1" relative="1" as="geometry">
            <mxPoint y="-11" as="offset" />
          </mxGeometry>
        </mxCell>
        <mxCell id="prdgfaqCDxP16Kbh74Cv-7" style="edgeStyle=orthogonalEdgeStyle;rounded=0;orthogonalLoop=1;jettySize=auto;html=1;entryX=0.5;entryY=0;entryDx=0;entryDy=0;endArrow=block;endFill=0;" edge="1" parent="1" source="prdgfaqCDxP16Kbh74Cv-9" target="prdgfaqCDxP16Kbh74Cv-12">
          <mxGeometry relative="1" as="geometry" />
        </mxCell>
        <mxCell id="prdgfaqCDxP16Kbh74Cv-8" value="Yes" style="edgeLabel;html=1;align=center;verticalAlign=middle;resizable=0;points=[];" vertex="1" connectable="0" parent="prdgfaqCDxP16Kbh74Cv-7">
          <mxGeometry x="-0.3887" y="-2" relative="1" as="geometry">
            <mxPoint x="11" y="-8" as="offset" />
          </mxGeometry>
        </mxCell>
        <mxCell id="prdgfaqCDxP16Kbh74Cv-9" value="&lt;font style=&quot;font-size: 9px;&quot;&gt;Does criticality &lt;br&gt;and trigger count sanction further investingation?&lt;/font&gt;" style="rhombus;whiteSpace=wrap;html=1;rounded=0;shadow=0;" vertex="1" parent="1">
          <mxGeometry x="307.5" y="200" width="185" height="80" as="geometry" />
        </mxCell>
        <mxCell id="prdgfaqCDxP16Kbh74Cv-10" value="No mitigation applied" style="rounded=1;whiteSpace=wrap;html=1;fillColor=#d5e8d4;strokeColor=#82b366;" vertex="1" parent="1">
          <mxGeometry x="520" y="700" width="120" height="60" as="geometry" />
        </mxCell>
        <mxCell id="prdgfaqCDxP16Kbh74Cv-11" style="edgeStyle=orthogonalEdgeStyle;rounded=0;orthogonalLoop=1;jettySize=auto;html=1;entryX=0.5;entryY=0;entryDx=0;entryDy=0;endArrow=block;endFill=0;" edge="1" parent="1" source="prdgfaqCDxP16Kbh74Cv-12" target="prdgfaqCDxP16Kbh74Cv-14">
          <mxGeometry relative="1" as="geometry" />
        </mxCell>
        <mxCell id="prdgfaqCDxP16Kbh74Cv-12" value="Increase sampling rate of observability measures" style="rounded=1;whiteSpace=wrap;html=1;" vertex="1" parent="1">
          <mxGeometry x="130" y="280" width="120" height="60" as="geometry" />
        </mxCell>
        <mxCell id="prdgfaqCDxP16Kbh74Cv-13" style="edgeStyle=orthogonalEdgeStyle;rounded=0;orthogonalLoop=1;jettySize=auto;html=1;entryX=0.5;entryY=0;entryDx=0;entryDy=0;endArrow=block;endFill=0;" edge="1" parent="1" source="prdgfaqCDxP16Kbh74Cv-14" target="prdgfaqCDxP16Kbh74Cv-16">
          <mxGeometry relative="1" as="geometry" />
        </mxCell>
        <mxCell id="prdgfaqCDxP16Kbh74Cv-14" value="Wait for enough samples to be collected" style="rounded=1;whiteSpace=wrap;html=1;" vertex="1" parent="1">
          <mxGeometry x="130" y="380" width="120" height="60" as="geometry" />
        </mxCell>
        <mxCell id="prdgfaqCDxP16Kbh74Cv-15" style="edgeStyle=orthogonalEdgeStyle;rounded=0;orthogonalLoop=1;jettySize=auto;html=1;endArrow=block;endFill=0;" edge="1" parent="1" source="prdgfaqCDxP16Kbh74Cv-16" target="prdgfaqCDxP16Kbh74Cv-18">
          <mxGeometry relative="1" as="geometry" />
        </mxCell>
        <mxCell id="prdgfaqCDxP16Kbh74Cv-16" value="Decrease sampling rate of observability measures" style="rounded=1;whiteSpace=wrap;html=1;" vertex="1" parent="1">
          <mxGeometry x="130" y="480" width="120" height="60" as="geometry" />
        </mxCell>
        <mxCell id="prdgfaqCDxP16Kbh74Cv-17" style="edgeStyle=orthogonalEdgeStyle;rounded=0;orthogonalLoop=1;jettySize=auto;html=1;entryX=0.5;entryY=0;entryDx=0;entryDy=0;endArrow=block;endFill=0;" edge="1" parent="1" source="prdgfaqCDxP16Kbh74Cv-18" target="prdgfaqCDxP16Kbh74Cv-24">
          <mxGeometry relative="1" as="geometry" />
        </mxCell>
        <mxCell id="prdgfaqCDxP16Kbh74Cv-18" value="Assess mitigation impact" style="rounded=1;whiteSpace=wrap;html=1;" vertex="1" parent="1">
          <mxGeometry x="130" y="580" width="120" height="60" as="geometry" />
        </mxCell>
        <mxCell id="prdgfaqCDxP16Kbh74Cv-19" value="Short-term mitigation strategy applied" style="rounded=1;whiteSpace=wrap;html=1;fillColor=#d5e8d4;strokeColor=#82b366;" vertex="1" parent="1">
          <mxGeometry x="130" y="1020" width="120" height="60" as="geometry" />
        </mxCell>
        <mxCell id="prdgfaqCDxP16Kbh74Cv-20" style="edgeStyle=orthogonalEdgeStyle;rounded=0;orthogonalLoop=1;jettySize=auto;html=1;entryX=0;entryY=0.5;entryDx=0;entryDy=0;endArrow=block;endFill=0;" edge="1" parent="1" source="prdgfaqCDxP16Kbh74Cv-24" target="prdgfaqCDxP16Kbh74Cv-10">
          <mxGeometry relative="1" as="geometry" />
        </mxCell>
        <mxCell id="prdgfaqCDxP16Kbh74Cv-21" value="Yes" style="edgeLabel;html=1;align=center;verticalAlign=middle;resizable=0;points=[];" vertex="1" connectable="0" parent="prdgfaqCDxP16Kbh74Cv-20">
          <mxGeometry x="-0.573" y="-2" relative="1" as="geometry">
            <mxPoint x="-13" y="-12" as="offset" />
          </mxGeometry>
        </mxCell>
        <mxCell id="prdgfaqCDxP16Kbh74Cv-22" style="edgeStyle=orthogonalEdgeStyle;rounded=0;orthogonalLoop=1;jettySize=auto;html=1;entryX=0.5;entryY=0;entryDx=0;entryDy=0;endArrow=block;endFill=0;" edge="1" parent="1" source="prdgfaqCDxP16Kbh74Cv-24" target="prdgfaqCDxP16Kbh74Cv-26">
          <mxGeometry relative="1" as="geometry" />
        </mxCell>
        <mxCell id="prdgfaqCDxP16Kbh74Cv-23" value="No" style="edgeLabel;html=1;align=center;verticalAlign=middle;resizable=0;points=[];" vertex="1" connectable="0" parent="prdgfaqCDxP16Kbh74Cv-22">
          <mxGeometry x="-0.2293" relative="1" as="geometry">
            <mxPoint x="10" y="5" as="offset" />
          </mxGeometry>
        </mxCell>
        <mxCell id="prdgfaqCDxP16Kbh74Cv-24" value="&lt;font size=&quot;1&quot;&gt;Would mitigating &lt;br&gt;the vulnerability cause a severe distruption in &lt;br&gt;the system?&lt;/font&gt;" style="rhombus;whiteSpace=wrap;html=1;" vertex="1" parent="1">
          <mxGeometry x="97.5" y="680" width="185" height="100" as="geometry" />
        </mxCell>
        <mxCell id="prdgfaqCDxP16Kbh74Cv-25" style="edgeStyle=orthogonalEdgeStyle;rounded=0;orthogonalLoop=1;jettySize=auto;html=1;endArrow=block;endFill=0;" edge="1" parent="1" source="prdgfaqCDxP16Kbh74Cv-26" target="prdgfaqCDxP16Kbh74Cv-28">
          <mxGeometry relative="1" as="geometry" />
        </mxCell>
        <mxCell id="prdgfaqCDxP16Kbh74Cv-26" value="Apply mitigation strategy to vulnerable callables" style="rounded=1;whiteSpace=wrap;html=1;" vertex="1" parent="1">
          <mxGeometry x="130" y="820" width="120" height="60" as="geometry" />
        </mxCell>
        <mxCell id="prdgfaqCDxP16Kbh74Cv-27" style="edgeStyle=orthogonalEdgeStyle;rounded=0;orthogonalLoop=1;jettySize=auto;html=1;entryX=0.5;entryY=0;entryDx=0;entryDy=0;endArrow=block;endFill=0;" edge="1" parent="1" source="prdgfaqCDxP16Kbh74Cv-28" target="prdgfaqCDxP16Kbh74Cv-19">
          <mxGeometry relative="1" as="geometry" />
        </mxCell>
        <mxCell id="prdgfaqCDxP16Kbh74Cv-28" value="Restart services to enable mitigation" style="rounded=1;whiteSpace=wrap;html=1;" vertex="1" parent="1">
          <mxGeometry x="130" y="920" width="120" height="60" as="geometry" />
        </mxCell>
      </root>
    </mxGraphModel>
  </diagram>
</mxfile>
